<?xml version="1.0" standalone="no"?>
<!DOCTYPE svg PUBLIC "-//W3C//DTD SVG 20010904//EN"
 "http://www.w3.org/TR/2001/REC-SVG-20010904/DTD/svg10.dtd">
<svg version="1.0" xmlns="http://www.w3.org/2000/svg"
 width="300.000000pt" height="300.000000pt" viewBox="0 0 300.000000 300.000000"
 preserveAspectRatio="xMidYMid meet">

<g transform="translate(0.000000,300.000000) scale(0.100000,-0.100000)"
fill="#000000" stroke="none">
<path d="M1580 2373 c0 -21 3 -24 9 -14 5 8 7 20 4 28 -8 21 -13 15 -13 -14z"/>
<path d="M1660 2350 c0 -19 3 -21 12 -12 9 9 9 15 0 24 -9 9 -12 7 -12 -12z"/>
<path d="M1252 2310 c0 -14 2 -19 5 -12 2 6 2 18 0 25 -3 6 -5 1 -5 -13z"/>
<path d="M1579 2304 c0 -16 0 -50 1 -76 1 -42 -1 -48 -19 -48 -17 0 -20 8 -24
53 -2 28 -3 -119 -3 -328 l1 -380 2 323 c3 314 4 322 23 322 20 0 20 -7 20
-322 0 -177 2 -319 5 -316 7 7 8 789 1 796 -3 3 -6 -8 -7 -24z"/>
<path d="M1744 2319 c-3 -6 -1 -16 5 -22 8 -8 11 -5 11 11 0 24 -5 28 -16 11z"/>
<path d="M1410 2270 c0 -5 7 -7 15 -4 8 4 15 8 15 10 0 2 -7 4 -15 4 -8 0 -15
-4 -15 -10z"/>
<path d="M1470 2230 c0 -48 -1 -50 -27 -51 -16 0 -37 -5 -48 -10 -14 -6 -5 -7
27 -3 l48 6 3 -323 2 -324 3 378 c1 207 0 377 -3 377 -3 0 -5 -22 -5 -50z"/>
<path d="M1832 2260 c0 -14 2 -19 5 -12 2 6 2 18 0 25 -3 6 -5 1 -5 -13z"/>
<path d="M1751 2251 c-1 -20 -5 -22 -28 -17 l-28 6 28 -15 c23 -14 27 -22 27
-61 0 -40 -2 -45 -17 -40 -17 6 -17 5 0 -8 16 -12 17 -37 17 -296 -1 -155 1
-285 4 -288 4 -3 6 124 6 282 0 227 3 286 13 280 10 -6 10 -4 0 7 -7 7 -13 33
-13 56 0 42 1 43 23 33 l22 -11 -22 18 c-12 10 -24 32 -26 48 -3 23 -4 25 -6
6z"/>
<path d="M1325 2250 c-8 -13 5 -13 25 0 13 8 13 10 -2 10 -9 0 -20 -4 -23 -10z"/>
<path d="M1660 2250 c20 -13 33 -13 25 0 -3 6 -14 10 -23 10 -15 0 -15 -2 -2
-10z"/>
<path d="M1280 2231 c-8 -6 -17 -8 -21 -5 -4 2 -9 -3 -13 -11 -7 -20 -3 -19
36 5 18 11 29 20 23 20 -5 0 -17 -4 -25 -9z"/>
<path d="M1912 2178 c-1 -32 -5 -58 -8 -58 -3 0 -19 9 -35 21 -21 14 -29 29
-30 52 -1 24 -3 26 -6 10 -2 -13 -9 -23 -15 -23 -7 0 -7 -4 0 -13 7 -8 11
-117 11 -321 0 -170 3 -311 6 -314 3 -3 5 135 5 308 l0 313 33 -25 c27 -21 32
-33 35 -73 l3 -47 -33 22 -33 22 33 -29 32 -28 0 -229 c-1 -125 1 -231 4 -234
3 -3 6 99 6 227 l0 232 35 -27 35 -27 0 -199 c-1 -110 1 -203 4 -206 3 -3 6
86 6 197 0 159 3 201 13 195 9 -6 9 -5 0 7 -7 9 -12 55 -12 123 0 60 -3 111
-6 114 -3 3 -5 -20 -5 -51 0 -31 -3 -57 -6 -57 -3 0 -19 9 -35 20 -25 19 -28
27 -32 88 l-3 67 -2 -57z m78 -175 c0 -49 -6 -52 -44 -22 -21 17 -26 29 -26
65 l0 44 35 -22 c31 -20 35 -28 35 -65z"/>
<path d="M1163 2164 c-10 -21 -9 -23 7 -14 26 14 32 27 17 33 -7 2 -18 -6 -24
-19z"/>
<path d="M1251 2164 c0 -11 3 -14 6 -6 3 7 2 16 -1 19 -3 4 -6 -2 -5 -13z"/>
<path d="M1330 2150 c-18 -12 -2 -12 25 0 13 6 15 9 5 9 -8 0 -22 -4 -30 -9z"/>
<path d="M1669 2145 c18 -8 36 -15 40 -15 13 1 -45 29 -59 29 -8 0 0 -6 19
-14z"/>
<path d="M1114 2127 c-12 -6 -27 -19 -34 -30 -8 -14 -2 -12 24 8 20 15 36 29
36 31 0 2 -1 3 -2 3 -2 -1 -13 -6 -24 -12z"/>
<path d="M1171 2114 c0 -11 3 -14 6 -6 3 7 2 16 -1 19 -3 4 -6 -2 -5 -13z"/>
<path d="M1242 2109 c-12 -19 -11 -19 8 -9 11 6 18 15 15 21 -8 12 -8 12 -23
-12z"/>
<path d="M2072 2068 c-2 -63 -3 -63 -35 -47 -21 10 -21 10 -3 -5 11 -9 23 -16
28 -16 4 0 8 -23 8 -50 0 -49 -1 -50 -22 -40 l-23 11 23 -17 c21 -16 22 -23
24 -198 l2 -181 3 175 c3 124 7 176 16 182 9 6 9 8 0 8 -9 0 -13 34 -16 118
-1 64 -4 91 -5 60z"/>
<path d="M850 2070 c0 -11 -3 -20 -7 -20 -5 0 -7 -120 -5 -267 2 -208 0 -268
-10 -275 -8 -5 0 -8 22 -8 l35 0 -3 182 c-2 140 0 183 10 189 11 7 11 9 0 9
-10 0 -12 21 -10 85 2 59 0 85 -9 85 -6 0 -9 9 -6 20 3 11 0 20 -6 20 -6 0
-11 -9 -11 -20z"/>
<path d="M2139 2083 c-1 -5 -1 -12 0 -17 1 -5 -2 -12 -8 -15 -10 -7 -13 -76
-12 -358 l1 -183 25 0 25 0 0 259 c0 256 -4 321 -21 321 -5 0 -10 -3 -10 -7z"/>
<path d="M1033 2066 c-13 -6 -25 -17 -28 -24 -3 -8 8 -4 25 8 17 12 30 23 30
26 0 2 -1 3 -2 3 -2 -1 -13 -6 -25 -13z"/>
<path d="M1170 2069 c0 -6 -8 -18 -17 -26 -16 -13 -16 -13 4 -3 27 13 36 27
23 35 -5 3 -10 1 -10 -6z"/>
<path d="M958 2017 c-16 -6 -28 -14 -28 -19 0 -4 -8 -8 -17 -9 -10 0 -13 -3
-7 -5 10 -4 84 33 84 42 0 2 -1 4 -2 3 -2 -1 -15 -6 -30 -12z"/>
<path d="M1115 2020 c-4 -6 -9 -8 -13 -6 -4 2 -15 -7 -26 -21 -18 -24 -18 -25
0 -15 21 11 61 52 51 52 -3 0 -9 -5 -12 -10z"/>
<path d="M1030 1964 c-17 -5 -45 -44 -32 -44 5 0 19 11 32 25 13 14 22 24 19
24 -2 -1 -11 -3 -19 -5z"/>
<path d="M930 1895 c-14 -8 -20 -14 -14 -15 5 0 19 7 30 15 24 18 16 19 -16 0z"/>
<path d="M1171 1604 c0 -11 3 -14 6 -6 3 7 2 16 -1 19 -3 4 -6 -2 -5 -13z"/>
<path d="M1251 1604 c0 -11 3 -14 6 -6 3 7 2 16 -1 19 -3 4 -6 -2 -5 -13z"/>
<path d="M1410 1599 c0 -5 5 -7 10 -4 6 3 10 8 10 11 0 2 -4 4 -10 4 -5 0 -10
-5 -10 -11z"/>
<path d="M938 1237 c-32 -59 -38 -98 -13 -77 13 11 15 3 15 -64 0 -59 3 -76
14 -76 12 0 16 23 19 113 2 61 6 121 8 131 8 39 -17 24 -43 -27z"/>
<path d="M1335 1238 c-9 -69 -35 -119 -81 -156 -25 -21 -35 -36 -30 -47 5 -14
11 -13 41 11 20 15 48 47 62 71 l25 43 28 -42 c38 -60 75 -92 96 -84 15 6 10
13 -26 48 -54 52 -94 136 -85 178 5 23 3 30 -8 30 -11 0 -17 -16 -22 -52z"/>
<path d="M1568 1237 c-34 -65 -34 -67 -1 -67 l27 0 -27 -28 c-15 -15 -27 -33
-27 -40 0 -13 49 -16 88 -6 35 10 27 31 -9 26 l-31 -5 36 51 c30 41 33 51 21
56 -9 3 -18 -1 -21 -9 -4 -8 -15 -15 -25 -15 -17 0 -17 2 2 35 19 31 19 55 1
55 -4 0 -19 -24 -34 -53z"/>
<path d="M1704 1257 c-9 -18 -23 -40 -31 -49 -18 -20 -9 -38 18 -38 24 0 24
-12 -1 -35 -30 -27 -25 -45 13 -45 45 0 77 10 77 24 0 8 -11 11 -31 8 -35 -5
-35 -3 10 56 20 28 22 35 10 42 -9 6 -17 4 -22 -5 -7 -13 -37 -22 -37 -11 0 3
9 20 20 39 18 30 18 35 5 40 -10 4 -20 -4 -31 -26z"/>
<path d="M1850 1150 c0 -109 2 -130 15 -130 9 0 15 9 15 25 0 16 4 23 13 19 8
-3 18 6 25 21 12 25 32 34 32 14 0 -5 5 -7 11 -4 6 4 10 1 8 -6 -6 -48 13 -52
32 -8 11 29 14 30 25 14 7 -9 17 -14 23 -10 7 3 11 -2 11 -14 0 -14 -6 -21
-20 -21 -13 0 -18 -5 -14 -15 4 -8 14 -15 23 -15 35 0 41 21 41 142 l0 118
-120 0 -120 0 0 -130z m210 28 c-1 -67 -2 -71 -16 -53 -10 13 -12 30 -8 50 10
46 10 57 -2 62 -7 2 -14 -8 -18 -22 -6 -25 -26 -36 -26 -14 0 6 -7 9 -15 5
-10 -4 -15 1 -15 14 0 11 -7 20 -15 20 -10 0 -15 -10 -15 -27 0 -25 -1 -25
-18 -10 -10 10 -22 14 -25 10 -4 -3 -7 3 -7 15 0 21 4 22 90 22 l90 0 0 -72z
m-150 -38 c0 -9 -7 -25 -15 -36 -13 -17 -14 -15 -14 36 0 51 1 53 14 36 8 -11
15 -27 15 -36z m72 28 c11 -21 12 -47 2 -57 -2 -3 -11 4 -19 15 -16 22 -20 64
-5 64 5 0 15 -10 22 -22z"/>
<path d="M1010 1260 c0 -5 9 -10 20 -10 13 0 20 -7 20 -20 0 -16 -7 -20 -30
-20 -20 0 -30 -5 -30 -15 0 -10 10 -15 30 -15 20 0 30 -5 30 -15 0 -9 -9 -15
-25 -15 -16 0 -25 -6 -25 -15 0 -8 9 -15 20 -15 28 0 25 -17 -10 -50 -24 -23
-27 -30 -16 -39 10 -9 19 -5 40 16 14 14 29 37 32 50 5 19 13 23 45 23 35 0
39 2 39 26 0 15 8 33 18 40 16 13 16 15 0 25 -10 5 -18 21 -18 34 0 24 -2 25
-70 25 -40 0 -70 -4 -70 -10z m110 -30 c0 -13 -7 -20 -20 -20 -13 0 -20 7 -20
20 0 13 7 20 20 20 13 0 20 -7 20 -20z m0 -65 c0 -8 -9 -15 -20 -15 -11 0 -20
7 -20 15 0 8 9 15 20 15 11 0 20 -7 20 -15z"/>
<path d="M1530 1045 c0 -13 21 -15 130 -15 109 0 130 2 130 15 0 13 -21 15
-130 15 -109 0 -130 -2 -130 -15z"/>
<path d="M1252 863 c-10 -10 -6 -11 19 -6 23 4 30 3 25 -6 -4 -6 -11 -9 -16
-6 -5 3 -11 1 -15 -5 -3 -5 2 -10 12 -10 10 0 24 9 30 19 10 17 9 19 -16 23
-15 2 -33 -2 -39 -9z"/>
<path d="M1390 869 c-19 -5 -14 -7 23 -8 26 -1 47 1 47 3 0 8 -46 12 -70 5z"/>
<path d="M1561 856 l-22 -23 51 0 51 0 -22 23 c-12 13 -25 24 -29 24 -4 0 -17
-11 -29 -24z m49 -1 c11 -13 8 -15 -20 -15 -28 0 -31 2 -20 15 7 8 16 15 20
15 4 0 13 -7 20 -15z"/>
<path d="M1716 865 c-3 -9 0 -15 9 -15 9 0 12 6 9 15 -4 8 -7 15 -9 15 -2 0
-5 -7 -9 -15z"/>
<path d="M1872 853 c-1 -17 -8 -34 -14 -36 -7 -3 12 -5 42 -5 39 1 44 2 18 5
-33 4 -37 8 -41 36 l-4 32 -1 -32z"/>
<path d="M1066 855 c-9 -26 -7 -32 5 -12 6 10 9 21 6 23 -2 3 -7 -2 -11 -11z"/>
<path d="M1990 845 c0 -12 3 -16 8 -8 4 6 23 13 42 15 l35 3 -42 6 c-38 4 -43
2 -43 -16z"/>
<path d="M960 831 c0 -16 -6 -31 -12 -34 -10 -3 -10 -8 1 -18 9 -9 11 -9 7 -1
-4 6 -2 12 3 12 6 0 11 13 11 29 0 25 5 30 28 34 25 4 25 4 -5 6 -30 1 -33 -2
-33 -28z"/>
<path d="M1420 836 c0 -8 -2 -21 -5 -28 -4 -9 5 -19 22 -26 26 -12 27 -11 8 3
-13 10 -19 25 -17 40 2 14 1 25 -2 25 -3 0 -6 -6 -6 -14z"/>
<path d="M1678 843 c-2 -5 -1 -24 3 -43 l6 -35 2 43 c1 39 -3 52 -11 35z"/>
<path d="M2130 836 c0 -11 10 -16 31 -16 38 0 35 24 -4 28 -19 2 -27 -1 -27
-12z"/>
<path d="M816 831 c-18 -7 -18 -8 5 -14 39 -11 59 -8 59 8 0 16 -31 19 -64 6z"/>
<path d="M983 803 c1 -34 10 -34 27 -2 7 13 7 19 0 19 -5 0 -10 -8 -11 -17 -1
-12 -4 -10 -9 7 -8 23 -8 23 -7 -7z"/>
<path d="M1113 823 c9 -2 23 -2 30 0 6 3 -1 5 -18 5 -16 0 -22 -2 -12 -5z"/>
<path d="M1554 806 c-3 -8 -4 -21 -1 -28 3 -7 6 -3 6 10 1 18 7 22 30 22 22 0
31 -6 34 -20 4 -17 4 -16 3 2 -1 18 -8 24 -34 26 -22 2 -34 -2 -38 -12z"/>
<path d="M1982 800 c0 -14 2 -19 5 -12 2 6 2 18 0 25 -3 6 -5 1 -5 -13z"/>
<path d="M2002 795 c0 -16 2 -22 5 -12 2 9 2 23 0 30 -3 6 -5 -1 -5 -18z"/>
<path d="M2050 811 c0 -6 4 -13 10 -16 6 -3 7 1 4 9 -7 18 -14 21 -14 7z"/>
<path d="M1113 803 c9 -2 23 -2 30 0 6 3 -1 5 -18 5 -16 0 -22 -2 -12 -5z"/>
<path d="M1859 783 c-13 -16 -12 -17 4 -4 16 13 21 21 13 21 -2 0 -10 -8 -17
-17z"/>
<path d="M1920 796 c0 -2 8 -10 18 -17 15 -13 16 -12 3 4 -13 16 -21 21 -21
13z"/>
<path d="M1240 780 c-9 -6 -10 -10 -3 -10 6 0 15 5 18 10 8 12 4 12 -15 0z"/>
</g>
</svg>
